<?xml version="1.0" encoding="UTF-8"?>
<svg id="OBJECTS" xmlns="http://www.w3.org/2000/svg" xmlns:xlink="http://www.w3.org/1999/xlink" viewBox="0 0 162.67 182.19">
  <defs>
    <style>
      .cls-1 {
        fill: url(#linear-gradient);
      }

      .cls-1, .cls-2 {
        opacity: .84;
      }

      .cls-2 {
        fill: url(#linear-gradient-2);
      }

      .cls-3 {
        fill: #0f172a;
        opacity: .88;
      }

      .cls-4 {
        fill: url(#linear-gradient-3);
        opacity: .87;
      }
    </style>
    <linearGradient id="linear-gradient" x1=".13" y1="85.71" x2="77.8" y2="85.71" gradientUnits="userSpaceOnUse">
      <stop offset="0" stop-color="#272525"/>
      <stop offset="1" stop-color="#272525"/>
    </linearGradient>
    <linearGradient id="linear-gradient-2" x1="84.87" y1="96.55" x2="162.54" y2="96.55" xlink:href="#linear-gradient"/>
    <linearGradient id="linear-gradient-3" x1="42.54" y1="91" x2="120.84" y2="91" xlink:href="#linear-gradient"/>
  </defs>
  <path class="cls-1" d="m51.43,120.02c6.03,6.03,15.81,6.03,21.85,0h0c6.03-6.03,6.03-15.81,0-21.84L26.5,51.4c-6.03-6.03-15.81-6.03-21.85,0h0c-6.03,6.03-6.03,15.81,0,21.85l27.67,27.6,19.11,19.17Z"/>
  <path class="cls-3" d="m73.28,4.6c-6.03-6.03-15.81-6.03-21.85,0L4.65,51.37c-5.91,5.91-6.28,15.15-.62,21.21l.24.25.31.31s.04.05.07.07c.02.03.05.05.08.07l27.59,27.56c-14.86-14.86,5.09-38.54,5.09-38.54h0s35.87-35.86,35.87-35.86c6.03-6.03,6.03-15.81,0-21.85Z"/>
  <path class="cls-2" d="m111.24,62.24c-6.03-6.03-15.81-6.03-21.85,0h0c-6.03,6.03-6.03,15.81,0,21.84l46.78,46.78c6.03,6.03,15.81,6.03,21.84,0h0c6.03-6.03,6.03-15.81,0-21.85l-27.67-27.6-19.1-19.17Z"/>
  <path class="cls-3" d="m89.39,177.66c6.03,6.03,15.81,6.03,21.85,0l46.77-46.78c5.91-5.91,6.28-15.15.62-21.21l-.24-.26-.31-.31s-.04-.05-.07-.07c-.02-.03-.05-.05-.08-.07l-27.59-27.56c14.86,14.86-5.09,38.54-5.09,38.54h0s-35.86,35.86-35.86,35.86c-6.03,6.03-6.03,15.81,0,21.84Z"/>
  <path class="cls-4" d="m71.77,171.5c-2.47,7.88-10.85,12.28-18.74,9.81h0c-7.88-2.46-12.27-10.86-9.81-18.74L91.61,10.5c2.47-7.88,10.86-12.28,18.74-9.81h0c7.88,2.46,12.27,10.86,9.81,18.74l-48.38,152.08Z"/>
</svg>